<?xml version="1.0" encoding="utf-8"?>
<!-- Generator: Adobe Illustrator 18.1.1, SVG Export Plug-In . SVG Version: 6.00 Build 0)  -->
<svg version="1.1"
	 id="svg11699" xmlns:dc="http://purl.org/dc/elements/1.1/" xmlns:rdf="http://www.w3.org/1999/02/22-rdf-syntax-ns#" xmlns:inkscape="http://www.inkscape.org/namespaces/inkscape" xmlns:sodipodi="http://sodipodi.sourceforge.net/DTD/sodipodi-0.dtd" xmlns:svg="http://www.w3.org/2000/svg" xmlns:cc="http://creativecommons.org/ns#" sodipodi:docname="New document 65" inkscape:version="0.48.4 r9939"
	 xmlns="http://www.w3.org/2000/svg" xmlns:xlink="http://www.w3.org/1999/xlink" x="0px" y="0px" viewBox="62 -103.8 724.2 806.8"
	 enable-background="new 62 -103.8 724.2 806.8" xml:space="preserve">
<sodipodi:namedview  id="base" pagecolor="#ffffff" bordercolor="#666666" fit-margin-left="0" inkscape:cx="1235.6593" borderopacity="1.0" inkscape:cy="-225.19282" inkscape:zoom="0.35" showgrid="false" fit-margin-top="0" inkscape:document-units="px" fit-margin-right="0" inkscape:current-layer="layer1" inkscape:window-maximized="1" inkscape:window-y="24" inkscape:window-height="1056" inkscape:pageopacity="0.0" inkscape:window-x="1649" fit-margin-bottom="0" inkscape:pageshadow="2" inkscape:window-width="1871">
	</sodipodi:namedview>
<g id="layer1" transform="translate(1193.5165,499.58787)" inkscape:label="Layer 1" inkscape:groupmode="layer">
	<g id="g11676" transform="matrix(0,-17.254173,17.254173,0,10442.693,-2252.8555)">
		
			<path id="path11666" sodipodi:type="arc" sodipodi:rx="7.5474257" sodipodi:cx="-141.92842" sodipodi:ry="7.5474257" sodipodi:cy="309.50256" fill="#FFFFFF" d="
			M-127.3-636.4c0,4.2-3.4,7.5-7.5,7.5c-4.2,0-7.5-3.4-7.5-7.5s3.4-7.5,7.5-7.5C-130.6-643.9-127.3-640.6-127.3-636.4z"/>
		
			<path id="path11668" sodipodi:type="arc" sodipodi:rx="7.5474257" sodipodi:cx="-141.92842" sodipodi:ry="7.5474257" sodipodi:cy="309.50256" fill="#FFFFFF" d="
			M-95.6-636.4c0,4.2-3.4,7.5-7.5,7.5s-7.5-3.4-7.5-7.5s3.4-7.5,7.5-7.5C-99-643.9-95.6-640.6-95.6-636.4z"/>
		
			<path id="path11670" sodipodi:type="arc" sodipodi:rx="7.5474257" sodipodi:cx="-141.92842" sodipodi:ry="7.5474257" sodipodi:cy="309.50256" fill="#FFFFFF" d="
			M-111.4-663.3c0,4.2-3.4,7.5-7.5,7.5s-7.5-3.4-7.5-7.5s3.4-7.5,7.5-7.5C-114.8-670.8-111.4-667.4-111.4-663.3z"/>
		
			<rect id="rect11672" x="-139.8" y="-653.8" transform="matrix(0.5 -0.866 0.866 0.5 501.9639 -435.2304)" fill="#FFFFFF" width="27.7" height="3"/>
		
			<rect id="rect11674" x="-126.1" y="-653.6" transform="matrix(-0.5 -0.866 0.866 -0.5 396.305 -1075.4094)" fill="#FFFFFF" width="27.7" height="3"/>
	</g>
</g>
</svg>
